<?xml version="1.0" encoding="UTF-8"?>
<svg width="32" height="32" viewBox="0 0 32 32" fill="none" xmlns="http://www.w3.org/2000/svg">
  <!-- Sun circle -->
  <circle cx="16" cy="16" r="12" fill="#FFD700" stroke="#FFA500" stroke-width="2"/>
  
  <!-- Sun rays -->
  <g>
    <path d="M16,4 Q17,6 16,7 Q15,6 16,4" stroke="#FFA500" stroke-width="1.5" fill="#FFD700"/>
    <path d="M16,4 Q17,6 16,7 Q15,6 16,4" stroke="#FFA500" stroke-width="1.5" fill="#FFD700" transform="rotate(30 16 16)"/>
    <path d="M16,4 Q17,6 16,7 Q15,6 16,4" stroke="#FFA500" stroke-width="1.5" fill="#FFD700" transform="rotate(60 16 16)"/>
    <path d="M16,4 Q17,6 16,7 Q15,6 16,4" stroke="#FFA500" stroke-width="1.5" fill="#FFD700" transform="rotate(90 16 16)"/>
    <path d="M16,4 Q17,6 16,7 Q15,6 16,4" stroke="#FFA500" stroke-width="1.5" fill="#FFD700" transform="rotate(120 16 16)"/>
    <path d="M16,4 Q17,6 16,7 Q15,6 16,4" stroke="#FFA500" stroke-width="1.5" fill="#FFD700" transform="rotate(150 16 16)"/>
    <path d="M16,4 Q17,6 16,7 Q15,6 16,4" stroke="#FFA500" stroke-width="1.5" fill="#FFD700" transform="rotate(180 16 16)"/>
    <path d="M16,4 Q17,6 16,7 Q15,6 16,4" stroke="#FFA500" stroke-width="1.5" fill="#FFD700" transform="rotate(210 16 16)"/>
    <path d="M16,4 Q17,6 16,7 Q15,6 16,4" stroke="#FFA500" stroke-width="1.5" fill="#FFD700" transform="rotate(240 16 16)"/>
    <path d="M16,4 Q17,6 16,7 Q15,6 16,4" stroke="#FFA500" stroke-width="1.5" fill="#FFD700" transform="rotate(270 16 16)"/>
    <path d="M16,4 Q17,6 16,7 Q15,6 16,4" stroke="#FFA500" stroke-width="1.5" fill="#FFD700" transform="rotate(300 16 16)"/>
    <path d="M16,4 Q17,6 16,7 Q15,6 16,4" stroke="#FFA500" stroke-width="1.5" fill="#FFD700" transform="rotate(330 16 16)"/>
  </g>
  
  <!-- Smiley face -->
  <path d="M12,14 Q16,16 20,14" stroke="#000" stroke-width="1" fill="none"/>
  <circle cx="13" cy="12" r="1.5" fill="#000"/>
  <circle cx="19" cy="12" r="1.5" fill="#000"/>
</svg> 